<?xml version="1.0" standalone="no"?>
<!DOCTYPE svg PUBLIC "-//W3C//DTD SVG 20010904//EN"
 "http://www.w3.org/TR/2001/REC-SVG-20010904/DTD/svg10.dtd">
<svg version="1.0" xmlns="http://www.w3.org/2000/svg"
 width="260.000000pt" height="260.000000pt" viewBox="0 0 260.000000 260.000000"
 preserveAspectRatio="xMidYMid meet">
<metadata>
Created by potrace 1.11, written by Peter Selinger 2001-2013
</metadata>
<g transform="translate(0.000000,260.000000) scale(0.100000,-0.100000)"
fill="#000000" stroke="none">
<path d="M1143 1708 c-5 -7 -13 -21 -17 -32 -4 -13 -13 -17 -28 -13 -12 3 -31
1 -42 -5 -34 -17 -76 -61 -76 -78 0 -9 -9 -25 -21 -36 -27 -25 -49 -67 -49
-96 0 -13 -7 -31 -15 -42 -13 -17 -15 -17 -30 -2 -9 9 -18 16 -20 16 -12 0
-105 -54 -105 -61 0 -5 -11 -9 -24 -9 -28 0 -82 -42 -91 -70 -8 -26 -58 -27
-93 -1 -41 29 -112 70 -162 93 -25 11 -48 25 -51 30 -13 20 -44 3 -47 -25 -3
-26 -5 -27 -20 -14 -22 18 -78 37 -111 37 -15 0 -31 4 -36 9 -6 5 -31 11 -57
13 l-48 3 0 -97 c0 -79 3 -98 14 -98 8 0 26 -10 40 -23 13 -12 35 -30 48 -41
13 -10 38 -33 56 -50 30 -28 35 -29 55 -17 20 13 21 13 8 -2 -7 -10 -11 -18
-7 -18 3 -1 11 -2 16 -3 6 0 10 -4 10 -8 0 -5 0 -11 0 -14 0 -4 -7 -1 -15 6
-8 6 -19 9 -25 5 -7 -4 -1 -13 16 -21 22 -12 29 -12 36 -2 11 19 10 0 -2 -23
-6 -10 -16 -19 -23 -19 -8 0 -8 3 2 9 11 7 9 11 -9 21 -20 11 -22 10 -16 -5 5
-15 4 -16 -9 -5 -8 7 -13 16 -10 20 3 4 -1 13 -9 19 -11 9 -15 9 -19 -1 -3
-10 -9 -8 -23 6 -18 18 -18 18 -1 13 11 -4 16 -3 12 3 -3 6 -11 10 -16 10 -14
0 -39 -26 -33 -33 3 -3 -4 -3 -17 0 -18 5 -21 3 -16 -11 4 -10 3 -15 -3 -11
-6 3 -10 12 -10 19 0 8 -10 16 -22 19 -12 4 -19 9 -16 13 4 3 22 1 40 -5 28
-10 34 -9 53 10 17 18 17 21 3 16 -10 -4 -17 -3 -15 1 2 8 -6 12 -24 12 -8 0
-7 -5 1 -15 11 -13 10 -14 -6 -9 -10 4 -24 11 -29 15 -17 12 -30 -3 -33 -38
-1 -23 2 -33 12 -33 8 0 21 -8 28 -17 7 -10 20 -19 28 -21 18 -3 50 -40 50
-56 0 -6 -5 -4 -10 5 -5 9 -20 15 -32 14 -13 -1 -15 0 -5 2 29 7 19 18 -28 29
-43 10 -45 10 -45 -13 0 -16 6 -23 20 -23 12 0 17 -5 14 -13 -2 -7 9 -23 25
-34 31 -24 49 -20 28 6 -11 14 -10 14 5 2 10 -7 16 -16 14 -20 -2 -3 2 -12 10
-19 8 -7 14 -8 14 -2 0 13 27 13 43 0 7 -6 21 -18 32 -26 19 -14 19 -15 -3 -4
-13 7 -26 10 -28 7 -8 -8 8 -37 21 -37 7 0 16 -7 19 -16 3 -8 9 -13 14 -10 4
2 14 -4 20 -15 12 -19 11 -19 -8 -9 -11 6 -20 7 -20 3 0 -4 -7 2 -16 13 -8 10
-12 13 -8 5 4 -9 2 -12 -6 -9 -7 2 -15 13 -16 23 -2 11 -7 21 -12 23 -5 1 -7
14 -4 27 2 15 0 25 -7 25 -7 0 -10 -4 -6 -9 10 -17 -18 -24 -30 -8 -7 10 -21
17 -32 17 -11 0 -28 9 -37 19 -10 11 -24 17 -32 14 -11 -4 -14 -41 -12 -203 2
-186 3 -198 19 -189 21 11 69 12 53 1 -6 -4 -14 -14 -17 -22 -4 -12 -6 -11 -6
3 -1 9 -6 17 -12 17 -6 0 -9 -6 -6 -14 4 -10 0 -12 -14 -9 -16 4 -19 0 -18
-23 0 -16 3 -23 6 -16 2 6 11 12 19 12 7 0 11 -6 8 -13 -3 -8 2 -14 10 -14 8
0 17 6 20 14 3 7 15 13 26 13 18 0 19 -2 8 -20 -7 -11 -18 -20 -25 -20 -19 0
-16 -37 3 -44 14 -5 15 -4 4 9 -10 13 -9 15 8 15 11 0 22 -4 24 -8 2 -5 19
-12 38 -15 34 -6 33 -5 -10 14 -34 15 -41 22 -30 29 8 5 15 17 15 27 0 12 9
19 25 21 39 6 43 17 13 33 -16 8 -34 20 -41 27 -11 10 -10 12 5 12 11 0 24 -5
29 -10 8 -8 20 -7 40 1 33 14 31 14 62 4 18 -5 22 -2 22 14 0 26 15 34 30 17
17 -22 64 -15 68 9 3 17 1 17 -7 5 -9 -13 -11 -13 -11 3 0 9 -5 17 -12 17 -6
0 -8 3 -5 6 4 4 18 -1 33 -10 17 -12 24 -24 21 -37 -4 -15 -2 -17 13 -9 13 7
21 7 25 0 11 -17 35 -11 35 9 0 11 5 23 10 26 12 8 13 3 0 -29 -6 -16 -6 -27
0 -31 6 -4 10 5 10 19 0 23 3 25 33 19 39 -7 47 -13 21 -14 -18 0 -18 -1 1 -9
18 -8 18 -9 2 -9 -20 -1 -47 -24 -47 -40 0 -6 -7 -8 -16 -4 -14 5 -16 2 -10
-23 6 -26 5 -27 -6 -9 -18 31 -36 46 -42 36 -4 -5 -2 -11 3 -13 5 -1 12 -14
16 -28 5 -22 1 -27 -26 -37 -18 -7 -35 -10 -38 -8 -2 3 1 5 8 5 7 0 9 5 6 10
-6 10 7 14 35 10 8 -1 -1 9 -20 22 -19 14 -37 21 -38 16 -2 -4 -12 2 -22 14
-10 13 -22 19 -26 15 -5 -4 -4 -11 2 -15 15 -10 25 -42 13 -42 -5 0 -12 7 -15
15 -8 19 -34 1 -35 -24 0 -12 -2 -12 -8 3 -5 14 -10 16 -15 8 -4 -7 -15 -12
-24 -12 -15 0 -15 2 -2 10 13 8 13 10 -2 10 -9 0 -19 6 -22 13 -3 6 -3 0 0
-15 4 -16 -1 -36 -12 -53 -18 -27 -18 -28 3 -21 15 5 22 2 26 -13 3 -15 0 -19
-13 -16 -11 2 -23 -2 -29 -8 -12 -16 88 -20 106 -5 9 7 13 7 13 -1 0 -20 27
-12 39 12 11 21 11 21 6 0 -6 -20 -3 -21 62 -20 53 2 68 5 68 17 0 18 34 40
52 33 7 -3 19 0 26 6 10 8 14 7 14 -4 0 -8 -4 -12 -9 -9 -4 3 -8 -2 -8 -10 0
-11 -8 -15 -28 -12 -18 2 -29 -2 -29 -9 0 -14 55 -15 76 -1 10 6 12 6 7 -3 -6
-8 116 -11 504 -9 l512 3 34 38 c29 31 38 36 50 26 7 -6 11 -16 8 -21 -3 -5
-8 -7 -11 -4 -8 7 -43 -13 -43 -24 0 -6 13 -8 30 -5 17 3 30 1 30 -5 0 -6 58
-9 151 -9 131 0 149 2 138 15 -6 8 -9 17 -6 20 3 3 12 -3 19 -15 13 -21 19
-21 305 -21 l293 0 0 359 c0 278 -3 361 -12 365 -10 5 -10 7 0 12 6 3 12 23
12 44 0 21 -6 41 -12 43 -10 4 -10 6 0 6 13 1 17 31 3 31 -14 0 -33 -28 -26
-40 10 -15 -41 -12 -58 4 -12 13 -69 18 -62 6 2 -3 -34 -5 -78 -6 -121 0 -177
-13 -177 -39 0 -19 -27 -26 -40 -9 -14 16 -66 19 -75 4 -3 -6 -19 4 -34 20
-18 21 -28 26 -28 15 0 -8 4 -15 8 -15 5 0 6 -6 3 -13 -2 -7 2 -35 10 -62 14
-46 14 -59 -2 -61 -4 0 -20 -6 -35 -12 -16 -7 -34 -12 -40 -11 -7 0 -2 4 11 9
18 8 22 17 22 50 0 23 5 50 10 61 8 13 7 19 0 19 -6 0 -9 12 -8 28 3 24 -1 27
-31 30 -19 2 -45 1 -59 -3 -21 -5 -23 -8 -11 -16 10 -6 7 -9 -13 -9 -21 0 -29
6 -34 25 -3 14 -13 29 -21 34 -8 4 -18 23 -23 42 l-7 34 -11 -25 c-7 -17 -11
-19 -11 -8 -1 9 -7 23 -15 30 -19 20 -42 68 -51 106 -6 29 -35 47 -35 21 0
-21 -31 21 -46 63 -8 24 -21 48 -28 54 -8 5 -16 26 -18 45 -2 26 -7 33 -20 31
-10 -2 -18 2 -18 7 0 5 -9 13 -21 16 -15 5 -29 -2 -55 -29 -19 -20 -41 -36
-48 -36 -8 0 -16 -7 -20 -15 -3 -8 -11 -15 -17 -15 -7 0 -21 -7 -31 -16 -14
-14 -20 -14 -33 -4 -8 7 -15 21 -15 31 0 10 -6 33 -14 51 -8 18 -22 54 -32 80
-13 37 -21 47 -38 47 -11 0 -30 2 -42 6 -12 4 -25 1 -31 -7z m1 -265 c-7 -42
-14 -56 -14 -30 0 17 -11 21 -39 17 -13 -1 -13 1 -2 14 10 11 17 13 26 6 12
-10 25 -4 25 12 0 5 -5 6 -12 2 -7 -4 -8 -3 -4 4 16 25 27 11 20 -25z m46 -8
c0 -2 -10 -9 -22 -15 -22 -11 -22 -10 -4 4 21 17 26 19 26 11z m-117 -40 c-10
-8 -20 -11 -23 -8 -3 3 1 8 8 10 6 3 10 9 7 14 -4 5 1 6 10 3 14 -6 14 -8 -2
-19z m-724 -102 c2 -2 -3 -3 -11 -3 -9 0 -19 7 -22 16 -6 15 -4 15 11 3 10 -7
20 -15 22 -16z m26 -13 c3 -5 1 -10 -4 -10 -6 0 -11 5 -11 10 0 6 2 10 4 10 3
0 8 -4 11 -10z m335 -10 c0 -5 -8 -10 -17 -10 -15 0 -16 2 -3 10 19 12 20 12
20 0z m198 -39 c46 -34 67 -60 33 -42 -11 7 -21 15 -21 20 0 14 -51 32 -72 25
-10 -3 -25 -1 -32 5 -10 9 -19 5 -37 -14 -26 -26 -39 -31 -39 -14 0 5 5 7 11
3 7 -4 10 -1 7 7 -6 19 29 37 73 38 25 1 48 -8 77 -28z m-302 -3 l19 -23 -25
20 c-14 11 -27 21 -29 22 -2 2 0 3 6 3 5 0 18 -10 29 -22z m370 9 c4 -4 -1
-10 -10 -13 -10 -4 -24 0 -33 9 -15 15 -14 16 10 13 15 -1 30 -6 33 -9z m-4
-71 c5 3 28 -4 51 -16 66 -33 93 -50 82 -50 -17 0 48 -31 85 -40 27 -6 29 -8
11 -9 -24 -1 -24 -1 -5 -17 19 -15 19 -16 -1 -8 -11 4 -30 7 -42 7 -13 -1 -21
3 -18 7 6 9 -90 50 -119 50 -20 1 -20 1 -3 14 17 14 18 15 1 35 -10 11 -22 18
-26 15 -5 -3 -1 -12 9 -19 10 -8 14 -17 9 -22 -5 -4 -11 -3 -13 4 -6 16 -111
66 -123 58 -6 -4 -7 1 -4 12 5 16 4 16 -10 -1 -14 -17 -20 -15 -18 5 1 7 -63
-4 -90 -16 -32 -13 -19 4 15 19 55 25 88 24 146 -6 29 -15 58 -25 63 -22z
m-292 29 c0 -11 -31 -11 -39 -1 -9 10 -6 12 14 8 14 -2 25 -6 25 -7z m310 0
c7 -9 8 -15 2 -15 -5 0 -12 7 -16 15 -3 8 -4 15 -2 15 2 0 9 -7 16 -15z m-457
-15 c9 -11 13 -20 7 -20 -5 0 -11 4 -15 10 -3 5 -13 6 -21 3 -23 -9 3 -23 43
-23 17 0 35 -4 38 -10 3 -5 13 -10 21 -10 8 0 23 -9 34 -20 17 -17 24 -18 41
-9 16 8 24 8 33 -2 6 -6 7 -9 1 -7 -5 3 -16 0 -22 -8 -21 -22 5 -28 30 -7 14
12 18 13 9 2 -10 -13 -7 -18 21 -32 43 -21 69 -30 127 -46 19 -5 29 -9 22 -10
-7 -1 -10 -6 -7 -12 5 -7 11 -5 18 5 17 22 65 27 98 11 21 -11 35 -12 54 -5
38 14 47 12 40 -9 -3 -11 -1 -22 5 -26 5 -3 10 -1 10 5 0 7 9 9 23 5 21 -6 21
-6 3 9 -11 9 -15 16 -9 16 6 0 24 -11 40 -24 15 -12 35 -21 43 -19 12 4 12 2
2 -5 -10 -7 -10 -11 2 -22 9 -7 14 -16 11 -20 -3 -5 8 -3 25 3 21 8 33 8 41 0
7 -7 3 -9 -18 -6 l-28 5 21 -22 c22 -22 44 -20 44 4 0 17 -30 43 -55 48 -18 4
-17 6 8 16 31 13 65 4 87 -24 14 -18 14 -18 -6 -1 -11 9 -26 17 -34 17 -17 0
23 -38 78 -73 23 -15 42 -30 42 -32 0 -9 -55 7 -71 22 -19 16 -52 6 -45 -13 4
-11 -1 -10 -19 2 -14 9 -25 13 -25 9 0 -5 -8 -1 -17 7 -10 8 -32 20 -50 27
-17 7 -34 20 -37 28 -4 9 -14 13 -26 10 -13 -3 -18 -1 -13 6 4 6 -2 8 -15 5
-12 -4 -19 -2 -16 3 8 14 -23 22 -43 10 -10 -6 -12 -11 -5 -11 6 0 12 -4 12
-10 0 -5 -7 -7 -15 -4 -8 4 -15 12 -15 20 0 8 -9 14 -20 14 -11 0 -20 4 -20 9
0 7 -16 14 -50 21 -2 1 -6 -3 -8 -9 -2 -6 5 -11 17 -11 11 0 22 -4 25 -9 4 -5
-9 -6 -29 -1 -33 7 -50 -3 -22 -13 6 -3 -7 -5 -31 -5 -31 0 -41 3 -33 11 16
16 14 34 -4 41 -12 4 -13 2 -5 -13 7 -15 6 -20 -6 -25 -14 -5 -14 -9 -3 -23
12 -14 11 -14 -13 1 -15 10 -31 15 -36 12 -5 -3 -23 10 -40 29 -31 33 -42 52
-22 40 12 -7 12 -3 4 19 -6 16 -25 23 -23 9 3 -21 -4 -20 -37 2 -20 14 -43 25
-51 25 -8 0 -11 5 -8 10 6 10 -5 13 -40 11 -18 -2 -105 68 -105 83 0 3 8 6 18
6 14 0 15 2 2 10 -13 9 -13 10 0 10 9 0 23 -9 33 -20z m179 8 c-8 -8 -8 -15
-2 -24 7 -8 6 -13 -5 -18 -10 -3 -15 1 -15 12 0 17 18 42 29 42 3 0 0 -5 -7
-12z m-498 -47 c4 -5 -3 -7 -14 -4 -23 6 -26 13 -6 13 8 0 17 -4 20 -9z m80
-9 c3 -5 -8 -9 -24 -9 -16 0 -27 4 -24 9 3 4 14 8 24 8 10 0 21 -4 24 -8z
m2062 -7 c-3 -8 -1 -15 3 -15 15 0 22 -32 10 -46 -17 -21 -39 -17 -39 7 0 18
2 19 15 9 9 -8 15 -9 15 -2 0 6 -4 14 -10 17 -14 8 -13 45 1 45 6 0 9 -7 5
-15z m111 -22 c7 -16 26 -43 43 -61 35 -39 37 -46 10 -37 -11 4 -20 2 -20 -4
0 -6 5 -11 12 -11 6 0 3 -6 -7 -14 -17 -12 -17 -14 -2 -37 23 -32 21 -46 -3
-24 -20 18 -20 17 -22 -21 l-1 -39 -4 38 c-2 20 -9 37 -14 37 -6 0 -8 4 -5 9
4 5 1 11 -6 13 -7 3 -8 9 -3 19 5 8 11 23 12 34 2 11 11 26 20 32 9 7 13 16 9
20 -4 5 -14 -1 -23 -12 -8 -11 -18 -19 -23 -18 -5 2 -7 -3 -4 -10 2 -7 -5 -22
-16 -34 -25 -28 -28 -52 -3 -32 16 13 16 13 0 -11 -21 -30 -22 -51 -2 -44 10
4 15 0 15 -12 0 -14 -2 -16 -9 -6 -4 8 -12 13 -17 12 -5 0 -12 15 -16 35 -6
27 -4 40 7 51 8 9 15 19 15 23 0 13 -69 -1 -74 -16 -3 -8 -2 -12 3 -9 5 3 11
-9 14 -27 2 -17 1 -34 -4 -35 -5 -2 -6 -9 -2 -15 5 -8 2 -8 -9 0 -8 7 -19 9
-23 5 -5 -4 -5 -1 -1 6 4 7 12 10 17 7 5 -4 9 6 9 20 0 15 -4 24 -10 20 -6 -4
-8 -10 -5 -15 3 -4 -2 -11 -10 -14 -13 -4 -13 -2 -5 14 15 27 13 32 -11 25
-16 -5 -19 -4 -14 5 5 8 4 11 -2 7 -10 -7 -8 -60 2 -78 4 -5 2 -9 -4 -9 -20 0
-24 64 -6 103 5 13 10 15 15 7 6 -9 13 -9 26 -1 14 8 15 11 4 11 -12 0 -11 4
4 15 10 8 23 12 29 8 5 -3 13 1 18 8 6 10 9 11 9 2 0 -7 7 -13 15 -13 8 0 15
7 15 15 0 8 5 15 10 15 6 0 10 -5 10 -12 0 -6 3 -8 7 -5 9 10 10 56 1 51 -10
-6 -10 -1 -2 20 9 23 17 20 31 -11z m-687 7 c0 -5 -4 -10 -10 -10 -5 0 -10 5
-10 10 0 6 5 10 10 10 6 0 10 -4 10 -10z m649 -32 c1 -5 -5 -8 -13 -8 -9 0
-12 8 -8 27 5 25 6 25 13 8 4 -11 8 -23 8 -27z m-2089 17 c10 -12 10 -15 -2
-15 -8 0 -18 4 -23 9 -6 5 -26 11 -45 14 -31 3 -29 4 11 5 31 1 51 -3 59 -13z
m106 -62 c-7 -7 -36 10 -30 18 3 5 -3 9 -12 9 -10 0 -14 3 -11 7 4 3 1 13 -5
22 -7 9 4 1 25 -18 20 -19 35 -36 33 -38z m1512 37 c-8 -13 -15 -15 -19 -8 -4
7 -9 1 -11 -13 l-5 -24 -10 25 c-14 32 -10 37 26 38 27 1 29 -1 19 -18z m247
-1 c4 -6 4 -13 0 -17 -4 -4 -10 -1 -12 6 -3 6 -9 10 -13 7 -5 -3 -11 -1 -15 5
-3 5 3 10 14 10 11 0 23 -5 26 -11z m-1830 -9 c-4 -6 -1 -19 6 -28 13 -16 12
-16 -6 -1 -11 10 -32 15 -49 13 -36 -4 -27 6 16 16 18 4 34 8 36 9 2 1 0 -4
-3 -9z m-262 -30 c-18 -17 -33 -17 -33 1 0 5 3 8 8 8 20 -3 32 2 26 13 -5 7
-3 8 5 4 9 -6 8 -13 -6 -26z m764 24 c-3 -3 -12 -4 -19 -1 -8 3 -5 6 6 6 11 1
17 -2 13 -5z m623 -14 c0 -5 8 -10 18 -10 11 0 27 -9 37 -20 10 -11 13 -20 7
-20 -7 0 -12 4 -12 9 0 5 -13 11 -29 14 -26 6 -53 37 -31 37 6 0 10 -4 10 -10z
m-1000 -10 c18 -12 2 -12 -25 0 -13 6 -15 9 -5 9 8 0 22 -4 30 -9z m614 -6 c5
-13 2 -15 -14 -11 -11 3 -20 1 -20 -5 0 -14 -53 -5 -56 10 -1 7 0 8 3 2 2 -5
11 -10 19 -10 9 0 12 5 8 12 -5 7 -2 9 8 6 8 -4 21 -2 29 3 18 11 16 12 23 -7z
m-928 -19 c21 -14 45 -23 54 -20 10 3 29 -8 51 -31 26 -28 29 -35 14 -30 -11
3 -26 2 -33 -3 -10 -6 -5 -11 19 -20 18 -6 29 -14 26 -18 -4 -3 3 -18 15 -32
13 -14 16 -20 7 -13 -14 10 -18 10 -22 -2 -3 -7 0 -20 6 -27 10 -11 9 -11 -4
-1 -14 10 -20 10 -33 -3 -14 -15 -16 -15 -16 -1 0 9 7 16 16 16 8 0 12 5 9 10
-3 6 -1 10 4 10 6 0 11 5 11 11 0 6 -9 9 -20 6 -11 -3 -20 -1 -20 4 0 5 -9 9
-20 9 -22 0 -27 16 -7 23 6 2 4 3 -6 1 -9 -1 -24 4 -31 12 -8 8 -19 14 -25 14
-6 0 -11 4 -11 9 0 14 43 9 60 -7 11 -12 15 -12 19 -1 2 7 -1 15 -7 17 -7 2
-12 9 -12 16 0 12 -100 60 -108 52 -7 -8 9 -26 24 -26 8 0 14 -4 14 -10 0 -5
-5 -10 -12 -10 -6 0 -8 -3 -5 -6 4 -4 12 -2 20 4 8 7 18 7 27 2 13 -8 12 -10
-2 -10 -9 0 -23 -3 -32 -6 -22 -8 -52 52 -35 72 16 19 22 18 65 -11z m1076 -2
c28 -26 35 -43 20 -43 -4 0 -12 10 -17 23 -8 17 -17 21 -39 19 -26 -3 -28 -1
-17 12 18 21 20 21 53 -11z m-795 -6 c3 -6 1 -7 -5 -3 -7 4 -12 2 -12 -3 0 -6
5 -11 10 -11 6 0 10 -5 10 -12 0 -6 -11 -1 -24 11 -19 18 -32 22 -53 18 l-28
-6 29 13 c30 14 62 11 73 -7z m1638 -76 c24 -18 24 -19 4 -24 -15 -4 -19 -2
-15 9 3 8 -2 19 -12 25 -13 8 -16 20 -12 52 l5 42 3 -42 c2 -31 10 -48 27 -62z
m89 83 c3 -8 2 -12 -4 -9 -6 3 -10 10 -10 16 0 14 7 11 14 -7z m-1897 0 c-3
-3 -12 -4 -19 -1 -8 3 -5 6 6 6 11 1 17 -2 13 -5z m48 -4 c3 -5 2 -10 -4 -10
-5 0 -13 5 -16 10 -3 6 -2 10 4 10 5 0 13 -4 16 -10z m176 -12 c0 -9 2 -9 5
-2 4 9 13 9 34 1 38 -14 39 -29 3 -22 l-28 6 30 -15 c17 -9 21 -14 10 -11 -35
8 -47 -10 -15 -22 17 -6 28 -8 26 -5 -10 16 19 39 39 31 18 -7 18 -8 2 -8 -10
-1 -16 -5 -13 -10 3 -5 -1 -15 -10 -22 -12 -10 -20 -10 -34 -2 -10 7 -27 9
-38 6 -17 -4 -20 -1 -15 15 3 14 -1 22 -16 27 -17 5 -19 9 -8 26 14 22 27 25
28 7z m-208 -13 c-3 -9 -8 -14 -10 -11 -3 3 -2 9 2 15 9 16 15 13 8 -4z m1207
-5 c13 -11 18 -20 12 -20 -10 0 -42 27 -42 36 0 8 7 4 30 -16z m78 4 c13 -4
21 -12 19 -18 -8 -21 53 -18 84 4 16 12 29 17 29 11 0 -5 8 -12 18 -15 14 -4
14 -5 -3 -4 -36 1 -45 -2 -45 -13 0 -5 5 -7 10 -4 6 3 10 1 10 -5 0 -8 -14
-11 -40 -8 -22 2 -40 2 -40 1 0 -8 98 -43 120 -43 30 0 45 21 27 39 -7 7 -2 7
15 -1 15 -7 24 -17 21 -23 -3 -5 0 -5 6 1 14 13 51 7 51 -8 0 -5 -10 -6 -21
-3 -12 4 -19 3 -16 -2 3 -5 -7 -7 -25 -5 -22 3 -29 1 -24 -7 4 -6 13 -8 19 -4
7 4 7 0 -1 -10 -12 -14 -10 -18 20 -32 22 -10 25 -13 8 -9 -46 12 -75 26 -62
31 19 7 14 23 -8 23 -11 0 -19 -5 -17 -11 1 -6 -5 -14 -13 -17 -8 -2 -12 -1
-8 3 10 10 -22 34 -44 35 -10 0 -18 5 -18 10 0 6 -6 10 -13 10 -8 0 -23 8 -35
18 -12 10 -32 18 -44 16 -13 -1 -30 -3 -38 -3 -13 -1 -13 -2 0 -11 13 -8 13
-10 -2 -10 -9 0 -20 5 -23 11 -4 6 -17 15 -29 20 -16 6 -12 7 15 3 43 -7 91
12 68 27 -16 10 -4 11 29 3z m452 -10 c0 -8 -5 -12 -10 -9 -6 4 -8 11 -5 16 9
14 15 11 15 -7z m135 7 c-3 -5 -1 -12 5 -16 5 -3 10 -18 10 -33 0 -20 3 -23 9
-12 6 8 7 18 5 22 -3 4 0 8 6 8 7 0 9 -12 6 -34 -8 -47 -27 -87 -40 -83 -14 5
-47 -33 -40 -45 3 -5 -4 -12 -16 -15 -16 -4 -18 -8 -8 -14 7 -5 23 -9 35 -9
29 0 95 -39 87 -52 -4 -6 -10 -5 -15 3 -6 10 -9 11 -9 2 0 -7 -10 -12 -22 -12
-19 1 -20 2 -5 6 18 5 18 5 0 18 -10 7 -22 14 -28 15 -5 1 -18 6 -27 11 -10 6
-19 5 -23 -1 -3 -5 -1 -10 4 -10 6 0 11 -10 11 -22 0 -21 -1 -21 -15 6 -8 15
-12 33 -8 39 4 7 0 8 -13 3 -12 -4 -7 3 11 18 17 14 26 25 21 26 -9 0 27 36
60 58 11 7 13 10 7 7 -7 -3 -13 0 -13 7 0 10 -3 9 -11 -2 -8 -11 -9 -9 -3 10
4 14 6 44 5 68 -1 25 2 42 9 42 6 0 9 -4 5 -9z m-1755 -5 c0 -2 -9 -6 -20 -9
-11 -3 -20 -1 -20 4 0 5 9 9 20 9 11 0 20 -2 20 -4z m1040 0 c0 -11 -19 -15
-25 -6 -3 5 1 10 9 10 9 0 16 -2 16 -4z m525 -6 c-3 -5 -14 -10 -23 -10 -15 0
-15 -2 -2 -10 13 -8 12 -10 -2 -10 -25 0 -22 19 5 30 29 12 29 12 22 0z m571
-17 c-7 -7 -26 7 -26 19 0 6 6 6 15 -2 9 -7 13 -15 11 -17z m-2139 -9 c-3 -3
-12 -4 -19 -1 -8 3 -5 6 6 6 11 1 17 -2 13 -5z m1580 -9 c0 -8 -7 -15 -15 -15
-12 0 -12 3 -2 15 7 8 13 15 15 15 1 0 2 -7 2 -15z m-1635 -2 c-30 -6 -18 -23
16 -23 37 -1 67 -24 49 -38 -8 -7 -18 -7 -27 -2 -10 7 -11 10 -2 10 6 0 12 5
12 11 0 6 -9 9 -20 6 -24 -6 -64 12 -67 31 -2 8 9 12 30 11 23 -1 26 -3 9 -6z
m103 -2 c-3 -5 8 -16 25 -24 17 -9 32 -11 36 -6 3 5 11 9 17 9 7 0 4 -7 -6
-15 -11 -7 -24 -12 -30 -10 -7 2 -24 6 -39 9 -23 5 -28 15 -19 44 1 1 6 2 12
2 5 0 8 -4 4 -9z m1135 -12 c0 -5 -6 -6 -12 -4 -7 2 -22 -2 -32 -10 -16 -13
-17 -17 -5 -31 13 -16 12 -16 -8 -4 -24 16 -25 26 -3 50 15 16 60 15 60 -1z
m-917 -16 c-7 -2 -19 -2 -25 0 -7 3 -2 5 12 5 14 0 19 -2 13 -5z m101 -11 c12
-7 -15 -22 -41 -22 -17 0 -21 4 -17 18 4 10 3 13 -3 6 -4 -6 -18 -14 -31 -18
-13 -5 -20 -12 -15 -19 5 -9 3 -9 -8 -1 -15 12 -109 11 -128 -1 -10 -5 -9 -2
0 13 10 16 18 18 43 11 20 -6 32 -5 34 1 2 5 13 8 25 5 12 -3 31 1 42 9 19 14
73 13 99 -2z m1352 3 c-11 -8 -29 -15 -40 -14 -15 0 -11 4 14 14 45 17 49 17
26 0z m-247 -26 c-19 -19 -69 -27 -69 -10 0 11 25 21 51 21 11 0 17 4 14 10
-3 5 0 7 9 4 12 -5 11 -9 -5 -25z m128 24 c-4 -3 -2 -12 4 -20 14 -16 -3 -17
-19 -1 -17 17 -15 28 5 28 9 0 13 -3 10 -7z m430 -30 c-3 -10 -5 -4 -5 12 0
17 2 24 5 18 2 -7 2 -21 0 -30z m58 27 c3 -5 1 -10 -4 -10 -6 0 -11 5 -11 10
0 6 2 10 4 10 3 0 8 -4 11 -10z m-1530 -20 c-3 -5 -15 -10 -25 -10 -10 0 -21
-5 -23 -10 -3 -6 -4 -5 -3 2 1 7 13 15 27 19 13 4 25 7 27 8 2 1 0 -3 -3 -9z
m998 -15 c17 -12 17 -13 -2 -18 -11 -3 -19 -1 -18 3 1 5 -7 16 -18 24 l-20 16
20 -7 c11 -3 28 -12 38 -18z m-1502 -2 c8 -10 9 -14 2 -10 -7 4 -17 0 -23 -10
-9 -14 -10 -15 -7 -2 3 9 0 22 -6 28 -8 8 -7 11 5 11 8 0 22 -8 29 -17z m373
-4 c-6 -11 -24 -2 -24 11 0 5 7 7 15 4 8 -4 12 -10 9 -15z m769 14 c3 -5 -6
-9 -20 -10 -19 -1 -22 1 -12 8 17 11 26 11 32 2z m-1378 -23 c-3 -5 -12 -10
-18 -10 -7 0 -6 4 3 10 19 12 23 12 15 0z m289 1 c3 -5 -3 -11 -13 -14 -14 -3
-18 -1 -14 9 6 16 19 18 27 5z m1516 -1 c-14 -9 -7 -12 16 -9 8 1 24 -22 24
-35 0 -5 -9 -1 -19 8 -11 10 -31 19 -45 20 -32 1 -32 4 -3 16 30 12 46 12 27
0z m-1053 -16 c18 -3 39 -14 47 -25 7 -11 23 -21 35 -22 11 -1 21 -4 21 -7 0
-4 21 -22 48 -40 26 -19 54 -42 63 -52 9 -10 24 -18 33 -18 9 0 16 -4 16 -10
0 -5 5 -10 11 -10 5 0 7 6 3 13 -5 9 -4 9 6 0 7 -6 9 -16 6 -21 -9 -15 -44
-11 -51 6 -3 7 -9 10 -15 7 -5 -3 -10 -2 -10 3 0 6 -10 8 -22 5 -19 -5 -21 -3
-10 8 18 20 15 24 -24 27 -19 1 -33 -2 -30 -6 3 -5 -1 -9 -9 -9 -18 0 -20 14
-3 19 6 2 13 13 14 25 5 28 -49 52 -77 35 -24 -15 -22 -16 -54 14 -21 19 -25
28 -15 34 8 5 9 9 1 14 -6 4 -11 2 -11 -4 0 -7 -6 -8 -19 0 -13 7 -28 7 -46 0
-33 -13 -58 -12 -27 1 13 5 21 13 17 18 -5 9 15 8 102 -5z m-352 -4 c-6 -10
20 -14 58 -11 9 1 17 -2 17 -8 0 -6 -6 -8 -14 -5 -10 4 -14 0 -12 -13 2 -10 1
-12 -1 -5 -3 6 -13 12 -23 12 -35 0 -52 11 -39 26 13 16 23 19 14 4z m-265
-15 c10 -12 9 -16 -5 -21 -9 -4 -22 -1 -28 5 -9 9 -8 11 6 6 19 -8 24 10 5 18
-8 4 -9 6 -2 6 6 1 17 -6 24 -14z m71 -2 c7 -10 9 -15 5 -11 -5 4 -15 0 -22
-10 -8 -9 -14 -12 -14 -5 0 6 5 15 10 18 6 4 8 11 5 16 -10 16 2 10 16 -8z
m144 7 c-3 -5 -16 -10 -28 -9 -20 1 -20 2 3 9 14 4 26 8 28 9 2 1 0 -3 -3 -9z
m915 -5 c0 -12 -19 -12 -23 0 -4 9 -1 12 9 8 7 -3 14 -7 14 -8z m380 2 c-27
-15 -36 -14 -25 2 3 6 16 11 28 11 21 0 21 -1 -3 -13z m-1795 -35 c-3 -3 -11
0 -18 7 -9 10 -8 11 6 5 10 -3 15 -9 12 -12z m419 7 c-5 -8 3 -10 23 -7 21 3
30 0 29 -9 -3 -18 -16 -29 -16 -14 0 9 -9 12 -25 9 -14 -3 -25 -1 -25 4 0 5
-4 6 -10 3 -5 -3 -10 -2 -10 4 0 5 8 12 18 14 9 3 18 5 20 6 2 0 0 -4 -4 -10z
m236 7 c0 -3 -4 -8 -10 -11 -5 -3 -10 -1 -10 4 0 6 5 11 10 11 6 0 10 -2 10
-4z m82 -11 c-12 -9 -26 -14 -31 -10 -6 3 -14 -3 -20 -12 -8 -15 -10 -15 -11
-2 0 23 16 34 52 37 33 3 33 2 10 -13z m62 -9 c-3 -9 -12 -16 -20 -16 -7 0
-18 -9 -24 -20 -6 -11 -17 -20 -26 -20 -11 0 -10 6 7 29 12 17 28 27 35 24 8
-3 17 2 20 11 4 9 8 15 10 13 3 -2 2 -12 -2 -21z m675 -3 c2 -2 -3 -3 -11 -3
-9 0 -19 7 -22 16 -6 15 -4 15 11 3 10 -7 20 -15 22 -16z m348 21 c-3 -3 -12
-4 -19 -1 -8 3 -5 6 6 6 11 1 17 -2 13 -5z m-1303 -19 c-4 -8 -11 -12 -16 -9
-6 4 -5 10 3 15 19 12 19 11 13 -6z m46 5 c-8 -5 -19 -10 -25 -10 -5 0 -3 5 5
10 8 5 20 10 25 10 6 0 3 -5 -5 -10z m1413 3 c-7 -2 -19 -2 -25 0 -7 3 -2 5
12 5 14 0 19 -2 13 -5z m97 -3 c0 -5 -5 -10 -11 -10 -5 0 -7 5 -4 10 3 6 8 10
11 10 2 0 4 -4 4 -10z m-690 -10 c-8 -5 -22 -9 -30 -9 -10 0 -8 3 5 9 27 12
43 12 25 0z m127 -6 c-3 -3 -12 -4 -19 -1 -8 3 -5 6 6 6 11 1 17 -2 13 -5z
m433 -4 c0 -5 -4 -10 -9 -10 -6 0 -13 5 -16 10 -3 6 1 10 9 10 9 0 16 -4 16
-10z m-1813 -26 c-3 -4 -14 -3 -24 0 -15 6 -15 8 -3 16 16 10 39 -4 27 -16z
m1679 -13 c6 -8 16 -11 22 -7 7 4 12 3 12 -3 0 -14 -14 -21 -25 -13 -6 4 -21
20 -35 37 -19 22 -20 26 -5 15 11 -8 25 -21 31 -29z m-1576 -13 c0 -4 -7 -5
-15 -2 -17 7 -20 -7 -5 -22 6 -6 0 -10 -18 -11 -18 0 -20 1 -8 4 18 5 18 6 -5
19 -18 10 -20 13 -6 14 9 0 17 4 17 9 0 4 -11 6 -25 3 -16 -3 -25 0 -25 8 0 7
8 10 20 7 11 -3 20 -1 20 4 0 11 49 -22 50 -33z m735 32 c3 -6 -4 -10 -17 -10
-18 0 -20 2 -8 10 19 12 18 12 25 0z m539 -5 c25 -19 9 -19 -24 0 -14 8 -19
14 -10 14 8 0 24 -6 34 -14z m46 5 c8 -5 11 -10 5 -10 -5 0 -17 5 -25 10 -8 5
-10 10 -5 10 6 0 17 -5 25 -10z m110 6 c0 -2 -13 -6 -30 -8 -16 -3 -30 -1 -30
4 0 4 14 8 30 8 17 0 30 -2 30 -4z m604 -12 c3 -8 2 -12 -4 -9 -6 3 -10 10
-10 16 0 14 7 11 14 -7z m-1904 -6 c0 -9 4 -8 11 2 7 10 9 11 7 2 -2 -8 -8
-14 -13 -14 -6 0 -22 -9 -37 -20 -16 -11 -28 -16 -28 -11 0 4 -5 1 -11 -7 -9
-13 -10 -13 -6 0 2 8 8 15 13 15 5 0 19 8 32 17 17 11 20 17 10 21 -9 4 -7 6
5 6 9 1 17 -5 17 -11z m-89 -16 c-7 -2 -18 1 -23 6 -8 8 -4 9 13 5 13 -4 18
-8 10 -11z m249 2 c0 -2 -7 -4 -15 -4 -8 0 -15 4 -15 10 0 5 7 7 15 4 8 -4 15
-8 15 -10z m27 -6 c-3 -8 -6 -5 -6 6 -1 11 2 17 5 13 3 -3 4 -12 1 -19z m458
12 c3 -5 -1 -10 -10 -10 -9 0 -13 5 -10 10 3 6 8 10 10 10 2 0 7 -4 10 -10z
m335 0 c0 -5 -2 -10 -4 -10 -3 0 -8 5 -11 10 -3 6 -1 10 4 10 6 0 11 -4 11
-10z m870 0 c0 -5 -7 -7 -15 -4 -8 4 -15 8 -15 10 0 2 7 4 15 4 8 0 15 -4 15
-10z m-1756 -17 c-5 -5 -12 -12 -15 -16 -3 -5 -9 -2 -12 7 -5 12 0 16 15 16
12 0 17 -3 12 -7z m146 -21 c0 -8 -1 -13 -3 -11 -1 2 -9 12 -16 22 -12 15 -12
17 3 11 9 -3 16 -13 16 -22z m370 18 c0 -5 -5 -10 -11 -10 -5 0 -7 5 -4 10 3
6 8 10 11 10 2 0 4 -4 4 -10z m570 -2 c0 -5 6 -8 14 -8 8 0 17 -3 19 -7 3 -5
-15 -8 -39 -8 -31 0 -43 4 -39 13 2 6 0 12 -5 12 -6 0 -10 -7 -10 -15 0 -17
-24 -16 -55 3 -18 10 -16 11 11 6 17 -3 34 -2 37 4 7 11 67 11 67 0z m-860
-14 c0 -2 -9 -4 -20 -4 -11 0 -20 4 -20 9 0 5 9 7 20 4 11 -3 20 -7 20 -9z
m564 8 c-6 -4 -14 -15 -17 -26 -6 -14 -4 -17 8 -12 9 3 13 2 10 -4 -3 -6 -15
-10 -25 -10 -17 0 -17 2 -4 30 9 17 21 30 27 30 8 0 9 -3 1 -8z m776 -16 c0
-6 3 -22 7 -36 9 -35 -8 -17 -22 24 -10 28 -10 33 1 29 8 -3 14 -10 14 -17z
m-2065 4 c3 -5 1 -10 -4 -10 -6 0 -11 5 -11 10 0 6 2 10 4 10 3 0 8 -4 11 -10z
m825 0 c0 -5 -5 -10 -11 -10 -5 0 -7 5 -4 10 3 6 8 10 11 10 2 0 4 -4 4 -10z
m150 0 c0 -5 -3 -9 -7 -9 -21 3 -26 -2 -13 -12 11 -8 12 -12 2 -16 -7 -2 -18
-10 -25 -17 -9 -9 -16 -8 -29 6 -17 16 -16 17 15 12 18 -3 27 -2 21 3 -20 15
-12 43 13 43 13 0 23 -4 23 -10z m726 -2 c-12 -7 -21 -7 -28 0 -6 6 0 10 18
10 23 0 24 -2 10 -10z m50 -3 c-3 -20 -16 -31 -16 -13 0 13 8 28 16 28 1 0 1
-7 0 -15z m164 5 c0 -5 6 -7 13 -4 7 2 24 0 38 -5 21 -9 18 -10 -20 -8 -25 1
-46 8 -49 15 -2 6 1 12 7 12 6 0 11 -4 11 -10z m273 -20 c3 -11 1 -20 -4 -20
-5 0 -9 4 -9 9 0 5 -3 17 -7 27 -4 11 -3 15 4 11 6 -4 13 -16 16 -27z m308 7
c-10 -9 -11 -8 -5 6 3 10 9 15 12 12 3 -3 0 -11 -7 -18z m-1913 -5 c-8 -10
-14 -10 -27 0 -9 7 -17 13 -19 14 -1 1 11 1 27 0 22 -1 27 -4 19 -14z m818 -1
c-1 -21 -19 -40 -30 -34 -4 3 -2 9 5 14 10 6 6 11 -14 18 -35 14 -34 16 7 17
24 0 33 -4 32 -15z m54 9 c12 -8 12 -10 1 -10 -8 0 -20 -8 -27 -17 -12 -17
-12 -17 -9 2 2 11 4 23 4 28 1 10 13 9 31 -3z m-726 -16 c10 -25 -1 -29 -14
-5 -6 12 -7 21 -1 21 5 0 12 -7 15 -16z m965 -1 c17 -10 31 -22 31 -27 0 -6
-5 -5 -11 1 -6 6 -18 9 -25 6 -8 -3 -14 0 -14 6 0 6 -9 11 -20 11 -11 0 -20 5
-20 10 0 15 25 12 59 -7z m-129 -9 c0 -2 -9 -4 -21 -4 -11 0 -18 4 -14 10 5 8
35 3 35 -6z m35 6 c-3 -5 -12 -10 -18 -10 -7 0 -6 4 3 10 19 12 23 12 15 0z
m545 -2 c0 -4 -6 -8 -14 -8 -8 0 -17 4 -20 8 -2 4 4 8 15 8 10 0 19 -4 19 -8z
m-1660 -20 c0 -13 -23 -5 -28 10 -2 7 2 10 12 6 9 -3 16 -11 16 -16z m335 12
c3 -5 2 -10 -4 -10 -5 0 -13 5 -16 10 -3 6 -2 10 4 10 5 0 13 -4 16 -10z m299
-6 c3 -8 2 -12 -4 -9 -6 3 -10 10 -10 16 0 14 7 11 14 -7z m396 6 c0 -5 -7 -7
-15 -4 -8 4 -15 8 -15 10 0 2 7 4 15 4 8 0 15 -4 15 -10z m130 -4 c0 -2 -7 -7
-16 -10 -8 -3 -12 -2 -9 4 6 10 25 14 25 6z m121 -13 c13 -16 12 -17 -3 -4
-17 13 -22 21 -14 21 2 0 10 -8 17 -17z m69 -5 c0 -6 -6 -5 -15 2 -8 7 -15 14
-15 16 0 2 7 1 15 -2 8 -4 15 -11 15 -16z m-995 -8 c-10 -11 -21 -17 -25 -15
-5 3 -10 -1 -13 -7 -2 -7 -8 -9 -13 -5 -9 9 16 28 27 21 4 -2 9 3 13 11 3 8
11 15 17 15 7 0 5 -8 -6 -20z m435 10 c0 -5 -4 -10 -9 -10 -6 0 -13 5 -16 10
-3 6 1 10 9 10 9 0 16 -4 16 -10z m260 -5 c-7 -8 -17 -15 -22 -15 -11 0 14 29
26 30 5 0 3 -7 -4 -15z m-983 -20 c-4 -8 -12 -15 -19 -15 -9 0 -8 3 2 10 13 9
13 10 0 10 -13 0 -13 1 0 10 18 11 24 6 17 -15z m173 10 c0 -1 -9 -5 -19 -8
-13 -3 -18 -1 -14 9 4 10 33 10 33 -1z m165 5 c-3 -5 -12 -10 -18 -10 -7 0 -6
4 3 10 19 12 23 12 15 0z m205 0 c0 -5 -4 -10 -9 -10 -6 0 -13 5 -16 10 -3 6
1 10 9 10 9 0 16 -4 16 -10z m100 -5 c0 -8 -4 -15 -10 -15 -5 0 -7 7 -4 15 4
8 8 15 10 15 2 0 4 -7 4 -15z m657 -1 c44 -6 52 -12 33 -25 -10 -5 -11 -12 -5
-16 16 -12 17 -40 1 -40 -8 0 -12 6 -9 13 6 16 -42 48 -58 38 -8 -5 -10 -2 -6
8 3 9 0 21 -6 28 -9 10 -9 11 1 6 7 -4 29 -10 49 -12z m313 12 c0 -3 -4 -8
-10 -11 -5 -3 -10 -1 -10 4 0 6 5 11 10 11 6 0 10 -2 10 -4z m-868 -23 c-6 -3
-9 -10 -6 -16 4 -7 1 -7 -7 1 -12 11 -12 14 1 22 8 5 17 6 20 3 3 -3 -1 -8 -8
-10z m92 8 c9 -15 -18 -31 -34 -20 -13 8 -13 10 0 19 19 12 27 12 34 1z m106
5 c0 -9 -30 -14 -35 -6 -4 6 3 10 14 10 12 0 21 -2 21 -4z m113 -42 c-3 -8 1
-14 8 -14 11 0 11 -2 -1 -10 -11 -7 -17 -4 -24 13 -5 12 -8 25 -8 30 3 11 -13
8 -26 -5 -9 -9 -12 -8 -12 4 0 9 8 18 18 20 22 4 52 -21 45 -38z m116 6 c12 0
21 -5 21 -11 0 -5 4 -8 9 -4 5 3 12 1 16 -5 3 -5 -3 -10 -14 -10 -11 0 -23 -4
-26 -10 -3 -5 -1 -10 5 -10 7 0 8 -6 0 -19 -7 -14 -6 -21 3 -24 9 -3 9 -7 0
-17 -9 -10 -13 -7 -19 14 -3 14 -12 26 -20 26 -10 0 -12 8 -7 32 5 24 3 29 -7
23 -9 -5 -11 -4 -6 3 4 7 3 12 -3 12 -5 0 -9 9 -8 21 l1 21 17 -21 c10 -12 27
-21 38 -21z m59 -6 c23 -23 28 -34 18 -34 -9 0 -16 6 -16 13 0 14 -29 40 -51
45 -8 2 -18 8 -24 14 -7 7 -2 8 15 3 14 -4 40 -22 58 -41z m147 36 c-3 -5 -11
-10 -16 -10 -6 0 -7 5 -4 10 3 6 11 10 16 10 6 0 7 -4 4 -10z m-800 -10 c-3
-5 -12 -10 -18 -10 -7 0 -6 4 3 10 19 12 23 12 15 0z m-355 -4 c0 -11 -19 -15
-25 -6 -3 5 1 10 9 10 9 0 16 -2 16 -4z m130 -11 c0 -8 -5 -15 -11 -15 -5 0
-8 4 -5 9 4 5 0 12 -6 14 -8 3 -6 6 5 6 9 1 17 -6 17 -14z m260 -4 c0 -13 -6
-18 -17 -16 -10 2 -20 4 -22 4 -4 1 31 30 37 31 1 0 2 -9 2 -19z m-566 -24
c-3 -9 -13 -17 -22 -17 -13 0 -13 2 3 13 11 9 15 19 10 28 -6 10 -5 11 4 3 6
-6 9 -18 5 -27z m632 5 c-17 -16 -18 -16 -5 5 7 12 15 20 18 17 3 -2 -3 -12
-13 -22z m714 18 c0 -5 -4 -10 -10 -10 -5 0 -10 5 -10 10 0 6 5 10 10 10 6 0
10 -4 10 -10z m148 -1 c-2 -6 -8 -10 -13 -9 -5 1 -12 -7 -16 -17 -5 -16 -7
-15 -19 6 -10 20 -10 23 2 18 8 -3 21 -1 29 4 18 11 21 11 17 -2z m-86 -26
c-4 -22 -2 -25 12 -20 12 5 16 3 13 -5 -2 -7 -11 -11 -18 -9 -8 2 -30 5 -49 6
-54 3 -60 4 -60 16 0 6 5 7 13 2 18 -11 36 -12 42 -3 3 5 13 6 22 3 12 -5 15
-2 10 10 -3 8 -1 18 6 21 7 2 13 5 13 5 1 1 -1 -11 -4 -26z m-165 9 c10 -6 10
-12 -3 -28 -8 -10 -13 -13 -9 -6 4 7 1 19 -5 27 -13 16 -3 20 17 7z m-1046
-25 c-10 -9 -11 -8 -5 6 3 10 9 15 12 12 3 -3 0 -11 -7 -18z m413 7 c3 -8 2
-12 -4 -9 -6 3 -10 10 -10 16 0 14 7 11 14 -7z m131 4 c5 4 5 1 1 -6 -4 -7
-11 -10 -16 -7 -4 3 -11 -1 -13 -7 -3 -7 -6 -2 -6 11 -1 18 2 21 12 12 8 -6
18 -7 22 -3z m-1265 -24 c0 -5 -13 -9 -29 -10 -21 -1 -28 3 -24 13 6 15 54 13
53 -3z m2110 12 c0 -3 -4 -8 -10 -11 -5 -3 -10 -1 -10 4 0 6 5 11 10 11 6 0
10 -2 10 -4z m-1716 -31 c-8 -13 -13 -29 -10 -34 9 -13 33 -4 40 16 5 11 2 14
-11 9 -14 -6 -15 -4 -6 5 12 12 33 5 33 -11 0 -5 -11 -17 -25 -26 -22 -14 -26
-14 -40 -1 -9 10 -11 18 -5 22 5 3 10 15 10 26 0 10 7 19 15 19 14 0 14 -3 -1
-25z m482 -3 c-18 -16 -18 -16 -6 6 6 13 14 21 18 18 3 -4 -2 -14 -12 -24z
m1244 8 c0 -5 -5 -10 -11 -10 -5 0 -7 5 -4 10 3 6 8 10 11 10 2 0 4 -4 4 -10z
m-1135 -10 c3 -5 1 -10 -4 -10 -6 0 -11 5 -11 10 0 6 2 10 4 10 3 0 8 -4 11
-10z m75 -10 c-8 -6 -22 -10 -30 -10 -8 0 -4 6 10 13 27 15 44 12 20 -3z m417
-16 c-3 -3 -12 -4 -19 -1 -8 3 -5 6 6 6 11 1 17 -2 13 -5z m93 1 c0 -5 -55
-35 -65 -35 -13 0 22 28 41 33 10 2 20 5 22 6 1 0 2 -1 2 -4z m352 -27 c-22
-22 -22 -22 -39 -3 -17 18 -17 18 0 5 15 -11 20 -11 35 3 9 10 19 17 21 17 3
0 -5 -10 -17 -22z m128 12 c0 -5 -2 -10 -4 -10 -3 0 -8 5 -11 10 -3 6 -1 10 4
10 6 0 11 -4 11 -10z m-1005 -10 c-3 -5 -12 -10 -18 -10 -7 0 -6 4 3 10 19 12
23 12 15 0z m692 4 c-3 -3 -12 -4 -19 -1 -8 3 -5 6 6 6 11 1 17 -2 13 -5z
m229 -3 c-4 -5 0 -12 6 -14 8 -3 6 -6 -4 -6 -10 -1 -18 6 -18 14 0 8 5 15 11
15 5 0 8 -4 5 -9z m-479 -32 c0 -19 -6 -29 -21 -33 -34 -9 -43 -7 -48 12 -5
18 8 36 32 44 29 9 37 4 37 -23z m-1137 11 c0 -5 -7 -10 -15 -10 -8 0 -15 5
-15 10 0 6 7 10 15 10 8 0 15 -4 15 -10z m860 3 c0 -2 -12 -8 -27 -14 -20 -7
-28 -6 -35 3 -6 10 -10 10 -18 -2 -5 -8 -10 -10 -10 -4 0 6 2 13 5 16 5 5 85
6 85 1z m177 1 c-3 -3 -12 -4 -19 -1 -8 3 -5 6 6 6 11 1 17 -2 13 -5z m636 -7
c3 -8 -4 -13 -22 -14 -14 0 -18 1 -8 4 9 2 15 9 12 14 -4 5 -2 9 3 9 6 0 12
-6 15 -13z m-1819 -12 c-4 -8 -11 -12 -16 -9 -6 4 -5 10 3 15 19 12 19 11 13
-6z m85 -10 c-10 -10 -22 -13 -34 -9 -18 7 -18 8 1 15 10 4 26 8 34 8 12 1 12
-1 -1 -14z m17 -23 c-18 -16 -18 -16 -6 6 6 13 14 21 18 18 3 -4 -2 -14 -12
-24z"/>
<path d="M552 1133 c-15 -6 -6 -23 14 -23 8 0 14 7 14 15 0 15 -6 17 -28 8z"/>
<path d="M770 1010 c-11 -7 -11 -10 -2 -10 7 0 10 -4 7 -10 -7 -11 36 -24 62
-17 10 3 4 5 -14 6 -32 1 -48 21 -17 21 8 0 12 5 9 10 -8 13 -26 13 -45 0z"/>
<path d="M1050 970 c0 -5 4 -10 9 -10 6 0 13 5 16 10 3 6 -1 10 -9 10 -9 0
-16 -4 -16 -10z"/>
<path d="M255 950 c3 -5 11 -10 16 -10 6 0 7 5 4 10 -3 6 -11 10 -16 10 -6 0
-7 -4 -4 -10z"/>
<path d="M278 883 c7 -3 16 -2 19 1 4 3 -2 6 -13 5 -11 0 -14 -3 -6 -6z"/>
<path d="M1007 773 c-9 -8 25 -33 36 -26 4 3 3 11 -4 19 -13 15 -22 18 -32 7z"/>
<path d="M1138 698 c5 -5 16 -8 23 -6 8 3 3 7 -10 11 -17 4 -21 3 -13 -5z"/>
<path d="M1890 566 c0 -2 7 -6 15 -10 8 -3 15 -1 15 4 0 6 -7 10 -15 10 -8 0
-15 -2 -15 -4z"/>
<path d="M7 1203 c-15 -14 -6 -33 16 -32 18 1 18 2 4 6 -11 3 -16 11 -13 19 6
15 3 18 -7 7z"/>
<path d="M60 1166 c0 -2 9 -6 20 -9 11 -3 18 -1 14 4 -5 9 -34 13 -34 5z"/>
<path d="M0 1139 c0 -11 9 -16 25 -16 16 0 25 5 25 16 0 10 -9 16 -25 16 -16
0 -25 -6 -25 -16z"/>
<path d="M2160 1120 c-9 -6 -10 -10 -3 -10 6 0 15 5 18 10 8 12 4 12 -15 0z"/>
<path d="M2000 1035 c0 -8 5 -15 10 -15 6 0 10 7 10 15 0 8 -4 15 -10 15 -5 0
-10 -7 -10 -15z"/>
<path d="M225 530 c-4 -6 -11 -8 -16 -5 -5 4 -17 1 -26 -4 -16 -9 -16 -10 -1
-11 9 0 18 -4 20 -9 2 -5 11 2 21 15 10 13 16 24 13 24 -3 0 -8 -5 -11 -10z"/>
<path d="M426 532 c-3 -4 4 -9 15 -9 23 -2 25 3 4 10 -8 4 -16 3 -19 -1z"/>
<path d="M362 521 c-11 -7 -11 -9 1 -14 16 -6 27 0 27 15 0 10 -11 10 -28 -1z"/>
<path d="M176 424 c-4 -10 -1 -14 6 -12 15 5 23 28 10 28 -5 0 -13 -7 -16 -16z"/>
<path d="M0 390 c0 -11 4 -20 8 -20 4 0 8 9 9 20 1 11 -2 20 -8 20 -5 0 -9 -9
-9 -20z"/>
<path d="M118 372 c-13 -5 -15 -11 -8 -22 7 -10 10 -11 10 -2 0 6 12 12 28 12
21 0 24 2 12 10 -17 11 -19 11 -42 2z"/>
<path d="M35 340 c-3 -5 -1 -10 4 -10 6 0 11 5 11 10 0 6 -2 10 -4 10 -3 0 -8
-4 -11 -10z"/>
<path d="M75 340 c4 -6 11 -8 16 -5 14 9 11 15 -7 15 -8 0 -12 -5 -9 -10z"/>
</g>
</svg>
